# xmcd CD database file
#
# Track frame offsets:
#	150
#	11492
#	27608
#	38670
#	48724
#	61830
#	76008
#	88133
#	108084
#	127274
#	140067
#	148756
#	163300
#	174570
#	187188
#	198138
#	209334
#	219971
#	231630
#	241549
#
# Disc length: 3424 seconds
#
# Revision: 0
# Processed by: cddbd v1.5.1PL2 Copyright (c) Steve Scherf et al.
# Submitted via: CDex 1.50
#
DISCID=240d5e14
DTITLE=Various Artist - Best of Country Ladies CD 1
DYEAR=2002
DGENRE=Country
TTITLE0=Wanda jackson - In The Middle Of A Heartache
TTITLE1=Lynn Anderson - The Devil Went Down To Georgia
TTITLE2=Loretta Lynn - Hey Loretta
TTITLE3=Anne Murray - It's All Over
TTITLE4=Barbara Mandrell - Don't Touch Me
TTITLE5=Bonnie Taylor - Naturally
TTITLE6=Kitty Wells - Lonely Side Of Town
TTITLE7=Tanya Tucker - Delta Dawn
TTITLE8=Tina Turner - Lovin' Him Was Easier
TTITLE9=Lynn anderson - Rose Garden
TTITLE10=Patsy Cline - Ain't No Wheels On This Ship
TTITLE11=Lynn Anderson - Cry
TTITLE12=Patsy Cline - Cry not For me
TTITLE13=Dolly Parton - Little Blossom
TTITLE14=Patsy Cline - I Cried All The Way To The Altar
TTITLE15=Lynn Anderson - Even Cowgirls Got The Blues
TTITLE16=Patsy Cline - I Don't Wanna
TTITLE17=Dolly Parton - Making Believe
TTITLE18=Barbara Mandrell - After Closing Time
TTITLE19=Bonnie Taylor - You've Got To Hide Your Love Away
EXTD=YEAR: 2002
EXTT0=
EXTT1=
EXTT2=
EXTT3=
EXTT4=
EXTT5=
EXTT6=
EXTT7=
EXTT8=
EXTT9=
EXTT10=
EXTT11=
EXTT12=
EXTT13=
EXTT14=
EXTT15=
EXTT16=
EXTT17=
EXTT18=
EXTT19=
PLAYORDER=
